# xmcd
#
# Track frame offsets: 
#        150
#        56701
#        80364
#        135394
#        163706
#
# Disc length: 3087 seconds
#
# Revision: 1
# Processed by: cddbd v1.5.2PL0 Copyright (c) Steve Scherf et al.
# Submitted via: ExactAudioCopy v0.95b4
#
DISCID=380c0d05
DTITLE=Otomo Yoshihide's New Jazz Orchestra - Live Vol. 2 Parallel Cir
DTITLE=cuit
DYEAR=2007
DGENRE=Jazz
TTITLE0=Shichinin no Kenji
TTITLE1=Gazzelloni
TTITLE2=Te recuerdo Amanda ~ Song for Che ~ Reducing Agent
TTITLE3=Super Jetter
TTITLE4=ANODEONJO
EXTD=YEAR: 2007
EXTT0=
EXTT1=
EXTT2=
EXTT3=
EXTT4=
PLAYORDER=
